<svg width="80" height="36" viewBox="0 0 80 36" fill="none" xmlns="http://www.w3.org/2000/svg">
<path d="M21.8015 17.7011C21.8015 20.8125 20.891 23.5088 19.1052 25.7489C17.3194 27.989 15.0813 29.0894 12.3478 29.0894C10.7066 29.0677 9.09472 28.6513 7.64835 27.8754C7.60383 27.8444 7.54958 27.8304 7.49562 27.8362C7.38205 27.8362 7.34485 27.9126 7.34485 28.032V29.0953C7.34485 30.9183 7.49563 32.1715 7.79913 32.8157C8.07097 33.3999 8.52426 33.8807 9.09148 34.1864C9.62212 34.4899 9.88843 34.8306 9.88843 35.1654C9.88843 35.7333 9.46939 35.9996 8.63523 35.9996H1.40592C0.569807 35.9996 0.152732 35.7333 0.152732 35.1654C0.152732 34.8227 0.419035 34.5192 0.949682 34.1864C1.51643 33.8807 1.96909 33.3998 2.24007 32.8157C2.54554 32.0951 2.69631 30.8047 2.69631 28.8681V15.6509C2.69631 14.1687 2.58274 13.2581 2.3928 12.8411C2.16566 12.3848 1.70942 12.0441 1.06325 11.815C0.342667 11.5487 0 11.2452 0 10.9045C0 10.4483 0.379872 10.1448 1.17486 9.95482C2.61051 9.64958 4.01957 9.23053 5.3887 8.70163C5.70779 8.54279 6.05669 8.45273 6.41279 8.43729C7.02176 8.43729 7.32526 8.8152 7.32526 9.57495V11.3607C7.32526 11.5879 7.39968 11.7015 7.55241 11.7015C7.66598 11.7015 7.74822 11.6251 7.85591 11.5056C9.48897 9.45485 11.5391 8.43011 14.0063 8.43142C15.1859 8.41395 16.35 8.70127 17.386 9.26557C20.3212 10.8281 21.8015 14.0179 21.8015 17.7011ZM16.9807 19.295C16.9807 17.1313 16.5244 15.3788 15.61 13.9787C14.7367 12.5748 13.5207 11.8542 12.0404 11.8542C9.26771 11.8542 7.29394 14.3586 7.29394 19.0678C7.3331 23.8887 9.30687 26.7044 12.2303 26.7044C15.3085 26.6986 16.9807 23.546 16.9807 19.295V19.295Z" fill="#F9F6EC"/>
<path d="M32.9638 27.8374C32.9638 28.4072 32.5467 28.6735 31.7106 28.6735H24.4206C23.5865 28.6735 23.1694 28.4072 23.1694 27.8374C23.1694 27.4967 23.4337 27.154 23.9663 26.8583C24.6106 26.4785 25.0668 26.0242 25.2939 25.5307C25.5994 24.8846 25.7502 23.5178 25.7502 21.5049V15.6521C25.7502 14.1698 25.6366 13.2593 25.4467 12.8794C25.1376 12.3839 24.6685 12.0088 24.1171 11.8162C23.4331 11.5551 23.0917 11.2516 23.093 10.9057C23.093 10.4494 23.4729 10.1459 24.2307 9.95598C25.5126 9.7123 26.7706 9.35652 27.9902 8.89273C28.8264 8.58922 29.3198 8.43845 29.5097 8.43845C30.1167 8.43845 30.4202 8.81636 30.4202 9.5761V21.497C30.4202 23.5478 30.5723 24.8767 30.8765 25.4837C31.1896 26.0381 31.6324 26.5085 32.1669 26.8544C32.6975 27.1951 32.9638 27.5339 32.9638 27.8374ZM29.9953 5.17233C28.3623 6.73881 27.6789 6.73881 26.0458 5.17233C24.4794 3.53927 24.4794 2.85589 26.0458 1.22479C27.6789 -0.408265 28.3623 -0.408265 29.9953 1.22479C31.6284 2.85785 31.6343 3.53927 29.9953 5.17233Z" fill="#F9F6EC"/>
<path d="M44.2119 27.8386C44.2119 28.4084 43.7948 28.6747 42.9587 28.6747H35.6726C34.8365 28.6747 34.4194 28.4084 34.4194 27.8386C34.4194 27.4979 34.6838 27.1552 35.2164 26.8595C35.783 26.5607 36.2463 26.098 36.5459 25.5319C36.8495 24.8857 37.0002 23.519 37.0002 21.5061V7.52715C37.0002 6.04682 36.8866 5.1363 36.6967 4.75643C36.3876 4.26089 35.9185 3.88577 35.3672 3.69318C34.6844 3.4321 34.3431 3.1286 34.3431 2.78266C34.3431 2.32643 34.723 2.02292 35.4827 1.83298C36.7635 1.58636 38.0202 1.22796 39.2383 0.7619C40.0744 0.458394 40.5679 0.305664 40.7578 0.305664C41.3648 0.305664 41.6683 0.685532 41.6683 1.44528V21.4982C41.6683 23.549 41.8204 24.8779 42.1246 25.4849C42.4383 26.0389 42.8809 26.509 43.415 26.8556C43.9456 27.1963 44.2119 27.5351 44.2119 27.8386Z" fill="#F9F6EC"/>
<path d="M62.0767 11.3228C63.8625 13.2221 64.773 15.6521 64.773 18.65C64.773 21.5362 63.8233 24.0035 61.8868 26.0536C59.9522 28.0665 57.5594 29.0906 54.7123 29.0906C51.7125 29.0906 49.3216 28.1801 47.4673 26.3199C45.613 24.4597 44.6809 21.9925 44.6809 18.9163C44.6809 16.03 45.6306 13.5628 47.5672 11.5499C49.5018 9.49977 51.8946 8.47568 54.7808 8.43848C57.8629 8.43848 60.2929 9.3862 62.0767 11.3228ZM58.3876 13.5628C57.4752 11.7026 56.1476 10.7921 54.4009 10.7921C51.5539 10.7921 49.7015 13.2593 49.7015 17.3968C49.7015 19.9423 50.1949 22.1433 51.1446 23.9662C52.0943 25.7501 53.4238 26.6606 55.1313 26.6606C58.0548 26.6606 59.8014 23.8527 59.8014 19.866C59.7994 17.4732 59.3432 15.3858 58.3876 13.5628Z" fill="#F9F6EC"/>
<path d="M79.7578 25.1032C79.7288 25.5215 79.5692 25.9201 79.3015 26.2428C78.2383 27.9131 76.0746 29.0899 73.7581 29.0899C71.4815 29.0899 69.8498 28.2166 68.8629 26.4699C68.2931 25.4087 67.9896 23.852 67.9896 21.8018C67.9896 20.8228 68.0268 19.2191 68.1403 17.0554C68.2559 14.8525 68.2931 13.2958 68.2931 12.4225C68.2931 12.1582 68.1795 12.0446 67.9132 12.0446H65.5635C65.4916 12.0527 65.4187 12.0445 65.3504 12.0206C65.2821 11.9967 65.2201 11.9577 65.1689 11.9065C65.1178 11.8554 65.0788 11.7933 65.0549 11.725C65.031 11.6567 65.0228 11.5839 65.0309 11.512V10.108C65.0309 9.80452 65.2267 9.61459 65.5635 9.53822C67.3473 9.19555 68.4869 8.51218 69.0567 7.44893C69.246 7.10822 69.4738 6.23556 69.7401 4.83094C69.8145 4.48828 70.0044 4.29834 70.308 4.29834H72.36C72.7008 4.29834 72.8535 4.45107 72.8535 4.79178V8.55134C72.8535 9.42466 73.0043 9.53039 73.8012 9.53039C75.2071 9.53039 77.1437 9.26409 78.017 9.26409C78.8903 9.26409 79.3074 9.49123 79.3074 9.98663C79.3074 10.1824 79.1547 10.67 79.1547 10.858C79.0039 11.9212 78.5849 12.1875 77.408 12.1875C77.1437 12.1875 76.5739 12.1503 75.7006 12.1112C74.8273 12.072 74.0303 12.0368 73.2334 12.0368C73.177 12.0306 73.12 12.0372 73.0665 12.0559C73.013 12.0747 72.9644 12.1052 72.9242 12.1452C72.884 12.1852 72.8533 12.2336 72.8343 12.287C72.8153 12.3405 72.8084 12.3975 72.8143 12.4538C72.7771 14.3904 72.7399 15.9079 72.7399 17.0103C72.7399 20.5016 72.9357 22.7809 73.3078 23.805C73.8012 25.0582 74.6784 25.7043 75.9277 25.7043C76.5739 25.7043 77.1809 25.4752 77.8271 25.0582C78.4733 24.6411 78.8903 24.412 79.0803 24.412C79.5345 24.4198 79.7578 24.6489 79.7578 25.1032Z" fill="#F9F6EC"/>
</svg>
