<svg width="281" height="57" viewBox="0 0 281 57" fill="none" xmlns="http://www.w3.org/2000/svg">
<path d="M271.63 30.0193L272.284 27.3779C272.963 27.7898 274.368 28.2745 275.459 28.2745C276.573 28.2745 277.034 27.8868 277.034 27.2809C277.034 26.6751 276.67 26.3843 275.289 25.9239C272.842 25.1 271.896 23.7672 271.921 22.3617C271.921 20.1565 273.811 18.4844 276.743 18.4844C278.124 18.4844 279.36 18.7994 280.087 19.1629L279.433 21.7074C278.9 21.4166 277.882 21.0288 276.864 21.0288C275.968 21.0288 275.459 21.3923 275.459 21.9982C275.459 22.5555 275.919 22.8463 277.373 23.3552C279.627 24.1307 280.572 25.2696 280.596 27.0144C280.596 29.2196 278.851 30.8432 275.459 30.8432C273.908 30.8432 272.527 30.5039 271.63 30.0193Z" fill="white"/>
<path d="M251.216 30.6009V22.5313C251.216 21.0531 251.168 19.793 251.119 18.7509H254.221L254.391 20.3503H254.463C254.972 19.5991 256.014 18.4844 258.05 18.4844C259.576 18.4844 260.788 19.2598 261.297 20.4957H261.345C261.782 19.8899 262.315 19.4052 262.872 19.066C263.526 18.6782 264.253 18.4844 265.126 18.4844C267.404 18.4844 269.124 20.0838 269.124 23.6218V30.6009H265.538V24.1549C265.538 22.4344 264.98 21.4408 263.793 21.4408C262.945 21.4408 262.339 22.0224 262.097 22.7251C262 22.9917 261.951 23.3794 261.951 23.6702V30.6009H258.365V23.961C258.365 22.4586 257.832 21.4408 256.669 21.4408C255.723 21.4408 255.166 22.1678 254.948 22.7736C254.827 23.0644 254.803 23.4037 254.803 23.6945V30.6009H251.216Z" fill="white"/>
<path d="M248.229 30.6009H244.909L244.691 29.4134H244.618C243.842 30.3585 242.631 30.8674 241.225 30.8674C238.826 30.8674 237.396 29.1227 237.396 27.2325C237.396 24.1549 240.159 22.6767 244.351 22.7009V22.5313C244.351 21.9012 244.012 21.0046 242.195 21.0046C240.983 21.0046 239.699 21.4166 238.923 21.9012L238.245 19.5264C239.069 19.066 240.692 18.4844 242.849 18.4844C246.799 18.4844 248.059 20.8107 248.059 23.5975V27.7171C248.059 28.8561 248.107 29.9466 248.229 30.6009ZM244.473 26.2874V25.003C242.534 24.9788 241.031 25.4392 241.031 26.869C241.031 27.8141 241.661 28.2745 242.485 28.2745C243.406 28.2745 244.158 27.6687 244.4 26.9175C244.448 26.7236 244.473 26.5055 244.473 26.2874Z" fill="white"/>
<path d="M234.962 30.6014H231.278V18.7515H234.962V30.6014ZM233.12 13.5898C234.307 13.5898 235.058 14.3895 235.083 15.4558C235.083 16.4736 234.307 17.2975 233.096 17.2975C231.932 17.2975 231.157 16.4736 231.181 15.4558C231.157 14.3895 231.932 13.5898 233.12 13.5898Z" fill="white"/>
<path d="M224.363 30.5999V13.3945H228.047V30.5999H224.363Z" fill="white"/>
<path d="M217.447 30.5999V13.3945H221.131V30.5999H217.447Z" fill="white"/>
<path d="M214.239 30.6014H210.555V18.7515H214.239V30.6014ZM212.397 13.5898C213.585 13.5898 214.336 14.3895 214.36 15.4558C214.36 16.4736 213.585 17.2975 212.373 17.2975C211.21 17.2975 210.434 16.4736 210.459 15.4558C210.434 14.3895 211.21 13.5898 212.397 13.5898Z" fill="white"/>
<path d="M196.273 30.6006H192.226L188.349 14.2676H192.299L193.534 21.0043C193.898 22.943 194.237 25.0513 194.504 26.6991H194.552C194.819 24.9301 195.207 22.9672 195.619 20.9559L197 14.2676H200.926L202.234 21.1497C202.598 23.0642 202.864 24.8089 203.107 26.6264H203.155C203.397 24.8089 203.761 22.8945 204.1 20.9559L205.433 14.2676H209.189L204.972 30.6006H200.974L199.593 23.573C199.278 21.9252 199.011 20.3985 198.817 18.5326H198.769C198.478 20.3743 198.211 21.9252 197.824 23.573L196.273 30.6006Z" fill="white"/>
<path d="M182.646 25.8512H175.013C175.134 27.3779 176.636 28.1049 178.357 28.1049C179.617 28.1049 180.635 27.9352 181.628 27.6202L182.113 30.1162C180.901 30.6009 179.423 30.8432 177.824 30.8432C173.801 30.8432 171.499 28.5168 171.499 24.8092C171.499 21.8043 173.365 18.4844 177.485 18.4844C181.313 18.4844 182.767 21.465 182.767 24.3972C182.767 25.0273 182.695 25.5846 182.646 25.8512ZM174.989 23.331H179.351C179.351 22.4344 178.963 20.9319 177.266 20.9319C175.716 20.9319 175.086 22.3374 174.989 23.331Z" fill="white"/>
<path d="M165.878 18.7509H169.076C169.028 19.5022 168.979 20.4957 168.979 22.2647V28.8803C168.979 31.1582 168.519 33.0242 167.186 34.2116C165.878 35.3263 164.109 35.6656 162.364 35.6656C160.813 35.6656 159.165 35.3505 158.099 34.7447L158.826 31.9579C159.577 32.3941 160.886 32.8545 162.267 32.8545C164.012 32.8545 165.345 31.9094 165.345 29.7285V28.953H165.296C164.593 29.9466 163.454 30.5039 162.097 30.5039C159.165 30.5039 157.081 28.1291 157.081 24.7122C157.081 20.9077 159.553 18.4844 162.461 18.4844C164.084 18.4844 165.102 19.1871 165.708 20.1564H165.756L165.878 18.7509ZM165.296 25.3181V23.5733C165.296 23.331 165.272 23.0886 165.223 22.8948C164.957 21.9255 164.254 21.2712 163.236 21.2712C161.903 21.2712 160.813 22.4828 160.813 24.6396C160.813 26.4086 161.685 27.7898 163.236 27.7898C164.181 27.7898 164.933 27.1598 165.175 26.2874C165.272 26.0208 165.296 25.6331 165.296 25.3181Z" fill="white"/>
<path d="M150.884 13.3945H154.567V27.0619C154.567 28.3947 154.616 29.8003 154.664 30.5999H151.393L151.223 28.8552H151.175C150.424 30.188 148.994 30.8665 147.467 30.8665C144.656 30.8665 142.403 28.4674 142.403 24.784C142.378 20.7856 144.874 18.4835 147.71 18.4835C149.164 18.4835 150.302 18.9923 150.836 19.8163H150.884V13.3945ZM150.884 25.3172V23.7662C150.884 23.5724 150.86 23.3058 150.836 23.112C150.617 22.1184 149.818 21.2945 148.679 21.2945C147.007 21.2945 146.134 22.7969 146.134 24.6629C146.134 26.6742 147.128 27.9343 148.655 27.9343C149.721 27.9343 150.569 27.2073 150.787 26.1653C150.86 25.8987 150.884 25.6322 150.884 25.3172Z" fill="white"/>
<path d="M139.872 30.6014H136.188V18.7515H139.872V30.6014ZM138.03 13.5898C139.217 13.5898 139.969 14.3895 139.993 15.4558C139.993 16.4736 139.217 17.2975 138.006 17.2975C136.843 17.2975 136.067 16.4736 136.091 15.4558C136.067 14.3895 136.843 13.5898 138.03 13.5898Z" fill="white"/>
<path d="M126.74 30.6009V22.6524C126.74 20.9077 126.692 19.7687 126.644 18.7509H129.818L129.939 20.9319H130.036C130.642 19.2114 132.096 18.4844 133.235 18.4844C133.574 18.4844 133.744 18.4844 134.01 18.5328V21.9982C133.744 21.9497 133.429 21.9012 133.017 21.9012C131.66 21.9012 130.739 22.6282 130.497 23.7672C130.448 24.0095 130.424 24.3003 130.424 24.5911V30.6009H126.74Z" fill="white"/>
<path d="M124.165 25.8512H116.531C116.653 27.3779 118.155 28.1049 119.876 28.1049C121.136 28.1049 122.153 27.9352 123.147 27.6202L123.632 30.1162C122.42 30.6009 120.942 30.8432 119.342 30.8432C115.32 30.8432 113.018 28.5168 113.018 24.8092C113.018 21.8043 114.884 18.4844 119.003 18.4844C122.832 18.4844 124.286 21.465 124.286 24.3972C124.286 25.0273 124.213 25.5846 124.165 25.8512ZM116.507 23.331H120.869C120.869 22.4344 120.481 20.9319 118.785 20.9319C117.234 20.9319 116.604 22.3374 116.507 23.331Z" fill="white"/>
<path d="M99.6982 18.752H103.697L105.296 24.2528C105.587 25.2464 105.805 26.1915 105.975 27.1366H106.047C106.241 26.1672 106.435 25.2706 106.702 24.2528L108.228 18.752H112.106L107.695 30.6019H104.012L99.6982 18.752Z" fill="white"/>
<path d="M98.5241 25.8512H90.8907C91.0119 27.3779 92.5143 28.1049 94.2349 28.1049C95.495 28.1049 96.5128 27.9352 97.5063 27.6202L97.991 30.1162C96.7794 30.6009 95.3011 30.8432 93.7018 30.8432C89.6791 30.8432 87.377 28.5168 87.377 24.8092C87.377 21.8043 89.2429 18.4844 93.3625 18.4844C97.1913 18.4844 98.6453 21.465 98.6453 24.3972C98.6453 25.0273 98.5726 25.5846 98.5241 25.8512ZM90.8665 23.331H95.2284C95.2284 22.4344 94.8407 20.9319 93.1444 20.9319C91.5935 20.9319 90.9634 22.3374 90.8665 23.331Z" fill="white"/>
<path d="M73.167 30.5299V14.4877C74.1363 14.2938 76.0992 14.1484 77.9409 14.1484C80.1946 14.1484 81.5758 14.3665 82.7633 15.0693C83.9022 15.6751 84.7261 16.7898 84.7261 18.268C84.7261 19.722 83.878 21.0791 82.0363 21.7576V21.8061C83.9022 22.315 85.2835 23.7205 85.2835 25.8287C85.2835 27.3069 84.605 28.4701 83.5872 29.294C82.3998 30.2391 80.4127 30.7723 77.1654 30.7723C75.348 30.7723 73.9909 30.6511 73.167 30.5299ZM76.8262 16.9352V20.7398H78.0378C79.9765 20.7398 81.0185 19.9401 81.0185 18.7285C81.0185 17.4926 80.0734 16.8383 78.4013 16.8383C77.6016 16.8383 77.1412 16.8868 76.8262 16.9352ZM76.8262 23.3812V27.9855C77.1897 28.0339 77.6259 28.0339 78.2559 28.0339C79.928 28.0339 81.4062 27.4039 81.4062 25.6833C81.4062 24.0355 79.928 23.3812 78.0863 23.3812H76.8262Z" fill="white"/>
<path d="M37.5569 9.97106C37.6754 7.75794 36.2132 5.11009 34.3162 4.00353L34.0791 1H40.679L42.8921 29.0198L44.1963 1H52.1003L53.4044 29.0198L55.6176 1H62.2174L59.4115 36.9238H54.0763V39.374H59.2139L57.8307 57H49.9267L48.1878 28.9802L46.4094 57H38.5054L35.1857 14.832C36.5689 13.8836 37.6359 11.6704 37.5569 9.97106Z" fill="white"/>
<path d="M40.717 1H34.1172" stroke="white" stroke-linecap="round" stroke-linejoin="round"/>
<path d="M59.2139 39.376L59.4115 36.9258H64.5491V39.376H59.2139Z" stroke="white" stroke-width="0.4" stroke-linecap="round" stroke-linejoin="round"/>
<path d="M59.2139 39.376L59.4115 36.9258H64.5491V39.376H59.2139Z" fill="white" stroke="white" stroke-width="0.6"/>
<path d="M59.4104 36.9258L59.2128 39.376H54.0752V36.9258H59.4104Z" stroke="white" stroke-width="0.4" stroke-linecap="round" stroke-linejoin="round"/>
<path d="M23.5665 18.2298C28.467 18.2694 32.6956 14.3173 33.0908 9.33781V8.94261C33.328 6.49236 31.5891 4.35827 29.1784 4.12115C29.0598 4.12115 28.9017 4.12115 28.7832 4.12115H21.3139C20.642 4.12115 19.9702 4.5954 19.7726 5.26724L15.623 18.2298H23.4875H23.5665ZM29.6526 24.9483C29.4155 21.8657 26.7676 19.3759 23.7246 19.3759H15.3068L10.841 33.3265C10.4458 34.5121 11.1177 35.8163 12.2637 36.2115C12.4218 36.2905 12.7775 36.33 12.9356 36.33H19.4169C25.0683 36.33 29.6526 31.6667 29.6526 25.8967C29.6526 25.6596 29.6526 25.1854 29.6131 24.9483H29.6526ZM30.6406 2.93555C34.4741 2.93555 37.5566 6.09716 37.5566 10.0097C37.6357 11.9461 36.4105 14.2778 34.7507 15.1868C33.1304 16.2538 29.8897 17.9927 28.1113 18.7041L29.4945 18.9807C32.8932 19.613 35.304 22.8932 34.9878 26.4105V27.0823C34.4741 32.9708 29.455 37.6342 23.6851 37.5552H1.63284C1.31668 37.5552 1.04004 37.2785 1.04004 36.9624C1.04004 36.6462 1.31668 36.3696 1.63284 36.3696H2.30468C4.00405 36.4091 5.78245 35.1049 6.25669 33.4451L14.8721 6.45284C15.1487 5.54388 14.6745 4.51635 13.7655 4.23971C13.647 4.20019 13.3703 4.16067 13.2122 4.16067H11.9081C11.5919 4.16067 11.3153 3.88403 11.3153 3.56787C11.3153 3.25171 11.5919 2.97507 11.9081 2.97507H30.6801L30.6406 2.93555Z" fill="#ED1F24"/>
<path d="M23.7234 19.377H15.3057" stroke="#ED1F24" stroke-width="0.3"/>
<path d="M15.3061 19.377L10.8799 33.3275" stroke="#ED1F24" stroke-width="0.3"/>
<path d="M15.7021 18.2305H23.5667" stroke="#ED1F24" stroke-width="0.3"/>
<path d="M10.8805 33.3262C10.4853 34.5118 11.1571 35.8159 12.3032 36.2111C12.4613 36.2902 12.817 36.3297 12.975 36.3297" stroke="#ED1F24" stroke-width="0.3"/>
<path d="M12.9746 36.3301H19.4954" stroke="#ED1F24" stroke-width="0.3"/>
<path d="M19.4951 36.331C25.1465 36.331 29.7308 31.6676 29.7308 25.8977C29.7308 25.6606 29.7308 25.1863 29.6913 24.9492" stroke="#ED1F24" stroke-width="0.3"/>
<path d="M29.6526 24.9493C29.4155 21.8667 26.7677 19.377 23.7246 19.377" stroke="#ED1F24" stroke-width="0.3"/>
<path d="M23.5664 18.2299C28.4669 18.2694 32.6955 14.3174 33.0907 9.33789" stroke="#ED1F24" stroke-width="0.3"/>
<path d="M33.0898 9.33856L33.1294 8.94336" stroke="#ED1F24" stroke-width="0.3"/>
<path d="M33.129 8.94255C33.3661 6.49231 31.5877 4.35821 29.2165 4.12109C29.0979 4.12109 28.9398 4.12109 28.8213 4.12109" stroke="#ED1F24" stroke-width="0.3"/>
<path d="M28.8228 4.08398H21.3535" stroke="#ED1F24" stroke-width="0.3"/>
<path d="M21.3528 4.08398C20.681 4.08398 20.0091 4.55822 19.8115 5.23007" stroke="#ED1F24" stroke-width="0.3"/>
<path d="M19.8122 5.23047L15.7021 18.2326" stroke="#ED1F24" stroke-width="0.3"/>
<path d="M14.8327 6.41326C15.1093 5.5043 14.6351 4.47678 13.7261 4.20014C13.6076 4.16062 13.3309 4.12109 13.1729 4.12109" stroke="#ED1F24" stroke-width="0.3"/>
<path d="M13.1719 4.08398H11.9072" stroke="#ED1F24" stroke-width="0.3"/>
<path d="M11.9073 4.08404C11.5911 4.08404 11.3145 3.8074 11.3145 3.49124C11.3145 3.17508 11.5911 2.89844 11.9073 2.89844" stroke="#ED1F24" stroke-width="0.3"/>
<path d="M11.9072 2.93555H30.6398" stroke="#ED1F24" stroke-width="0.3"/>
<path d="M30.6396 2.93555C34.4731 2.93555 37.5557 6.09716 37.5557 10.0097" stroke="#ED1F24" stroke-width="0.3"/>
<path d="M37.5569 9.97266C37.6359 11.9091 36.4108 14.2408 34.751 15.1498" stroke="#ED1F24" stroke-width="0.3"/>
<path d="M34.7507 15.1875C33.1304 16.2545 29.8897 17.9934 28.1113 18.7048" stroke="#ED1F24" stroke-width="0.3"/>
<path d="M28.1113 18.707L29.4945 18.9441" stroke="#ED1F24" stroke-width="0.3"/>
<path d="M29.4941 18.9434C32.8929 19.5757 35.3036 22.8559 34.9874 26.3731" stroke="#ED1F24" stroke-width="0.3"/>
<path d="M34.9872 26.3711L34.9082 27.0429" stroke="#ED1F24" stroke-width="0.3"/>
<path d="M34.9078 27.0449C34.4335 32.9334 29.4145 37.5968 23.6445 37.5178" stroke="#ED1F24" stroke-width="0.3"/>
<path d="M23.645 37.5195H1.59277" stroke="#ED1F24" stroke-width="0.3"/>
<path d="M1.5928 37.5157C1.27664 37.5157 1 37.239 1 36.9229C1 36.6067 1.27664 36.3301 1.5928 36.3301" stroke="#ED1F24" stroke-width="0.3"/>
<path d="M1.59277 36.3301H2.26462" stroke="#ED1F24" stroke-width="0.3"/>
<path d="M2.26465 36.3307C3.96401 36.3703 5.74242 35.0661 6.21666 33.4062" stroke="#ED1F24" stroke-width="0.3"/>
<path d="M6.21582 33.4083L14.8312 6.41602" stroke="#ED1F24" stroke-width="0.3"/>
</svg>
